{"title":"Thomas.And.Friends.Truckloads.Of.Fun[2005]-Bearmeister.avi","uid":4021960,"size":524204032,"categoryP":"video","categoryS":"tv_shows","magnet":"?xt=urn:btih:5c8e1d32eba7c7684805e45fb3441238a9e61af8&amp;dn=Thomas.And.Friends.Truckloads.Of.Fun%5B2005%5D-Bearmeister.avi&amp;tr=udp%3A%2F%2Ftracker.openbittorrent.com%3A80&amp;tr=udp%3A%2F%2Fopen.demonii.com%3A1337&amp;tr=udp%3A%2F%2Ftracker.coppersurfer.tk%3A6969&amp;tr=udp%3A%2F%2Fexodus.desync.com%3A6969","seeders":0,"leechers":1,"uploader":"bearmeister","files":1,"time":1202701741,"description":"\nAll Bearmeister torrents located here &lt;a href=&quot;\nhttp://thepiratebay.se/user/bearmeister/&quot; rel=&quot;nofollow&quot; target=&quot;_NEW&quot;&gt;\nhttp://thepiratebay.se/user/bearmeister/&lt;/a&gt;\n\n  Duration: 01:06:18.5, bitrate: 1054 kb/s\n  Stream #0.0: Video: mpeg4, 496x368, 25.00 fps\n  Stream #0.1: Audio: mp3, 24000 Hz, stereo, 60 kb/s\n\nA bumper length video with Thomas and all his friends having truckloads of fun!\n\nCome sing and play in 14 stories and songs:\n\nTruckloads of Fun features:\nThomas and the Trucks, Troublesome Trucks, Accidents Will Happen (Song), Tenders and Turntables, Trouble in the Shed, Off the Rails, The Snow Song (Song) , Thomas Percy and the Coal, Mavis, Heroes, Sir Topham Hatt (Song), Four Little Engines, Make Someone Happy.","torrent":{"xt":"urn:btih:5c8e1d32eba7c7684805e45fb3441238a9e61af8","amp;dn":"Thomas.And.Friends.Truckloads.Of.Fun%5B2005%5D-Bearmeister.avi","amp;tr":["udp%3A%2F%2Ftracker.openbittorrent.com%3A80","udp%3A%2F%2Fopen.demonii.com%3A1337","udp%3A%2F%2Ftracker.coppersurfer.tk%3A6969","udp%3A%2F%2Fexodus.desync.com%3A6969"],"infoHash":"5c8e1d32eba7c7684805e45fb3441238a9e61af8","infoHashBuffer":{"type":"Buffer","data":[92,142,29,50,235,167,199,104,72,5,228,95,179,68,18,56,169,230,26,248]},"announce":[],"urlList":[]}}